<svg xmlns="http://www.w3.org/2000/svg" width="20" height="18" fill="none"><path fill="#000" d="M18.454 9.27c2.061-2.124 2.061-5.573 0-7.677a5.176 5.176 0 0 0-7.472 0l-1 1.052-1-1.03C6.92-.532 3.572-.532 1.53 1.592.531 2.624 0 3.991 0 5.443 0 6.894.551 8.26 1.531 9.292L9.982 18l8.472-8.73ZM1.306 5.444c0-1.094.409-2.104 1.164-2.861.776-.8 1.776-1.199 2.776-1.199 1 0 2 .4 2.776 1.199l1.96 1.998 1.96-2.02c1.53-1.577 4.042-1.577 5.552 0a4.088 4.088 0 0 1 1.164 2.862 4.001 4.001 0 0 1-1.164 2.86l-7.512 7.762-7.512-7.74c-.735-.779-1.164-1.789-1.164-2.861Z"/></svg>