<svg xmlns="http://www.w3.org/2000/svg" width="173" height="33" fill="none"><path fill="#fff" d="m4.19 32.607 2.402-6.879h10.22l2.39 6.879h4.19l-9.415-25.99H9.415L0 32.606h4.19Zm3.552-10.178L11.6 11.337h.205l3.858 11.092H7.742ZM26.864 32.607h3.82V20.703c0-2.551 1.98-4.391 4.688-4.391.792 0 1.687.14 1.993.228v-3.63a15.605 15.605 0 0 0-1.622-.088c-2.3 0-4.267 1.294-4.983 3.388h-.204v-3.096h-3.692v19.493ZM48.234 33c5.532 0 9.148-4.023 9.148-10.051 0-6.066-3.616-10.09-9.148-10.09s-9.147 4.024-9.147 10.09c0 6.028 3.615 10.051 9.147 10.051Zm.013-3.185c-3.616 0-5.302-3.135-5.302-6.879 0-3.73 1.686-6.903 5.302-6.903 3.59 0 5.276 3.172 5.276 6.903 0 3.744-1.686 6.879-5.276 6.879ZM74.076 24.523c.013 3.312-2.466 4.886-4.612 4.886-2.364 0-3.999-1.701-3.999-4.353V13.114h-3.82v12.398c0 4.836 2.67 7.348 6.44 7.348 2.95 0 4.956-1.548 5.863-3.63h.205v3.377h3.756V13.114h-3.833v11.409ZM86.861 21.033c0-3.11 1.916-4.886 4.574-4.886 2.593 0 4.165 1.688 4.165 4.518v11.942h3.82v-12.4c0-4.822-2.67-7.347-6.682-7.347-2.951 0-4.88 1.358-5.787 3.426h-.243v-3.172H83.04v19.493h3.82V21.033ZM111.888 32.987c3.578 0 4.983-2.17 5.673-3.414h.319v3.034h3.731V6.617h-3.82v9.657h-.23c-.69-1.206-1.993-3.414-5.647-3.414-4.74 0-8.227 3.718-8.227 10.038 0 6.308 3.436 10.09 8.201 10.09Zm.844-3.236c-3.411 0-5.187-2.982-5.187-6.89 0-3.872 1.737-6.778 5.187-6.778 3.334 0 5.123 2.703 5.123 6.777 0 4.1-1.827 6.891-5.123 6.891ZM126.6 1.05h2.743v7.732h1.056V1.049h2.742V.12H126.6v.93ZM135.64 4.873c0-1.133.728-1.776 1.72-1.776.946 0 1.516.592 1.516 1.624v4.061h1.005V4.653c0-1.67-.894-2.453-2.231-2.453-1.031 0-1.618.427-1.925 1.1h-.085V.118h-1.005v8.664h1.005V4.873ZM144.463 8.917c1.328 0 2.299-.66 2.606-1.641l-.971-.27c-.256.676-.848 1.015-1.635 1.015-1.18 0-1.993-.758-2.04-2.15h4.748V5.45c0-2.42-1.448-3.25-2.811-3.25-1.771 0-2.947 1.388-2.947 3.385 0 1.997 1.159 3.333 3.05 3.333Zm-2.04-3.908c.068-1.011.788-1.912 1.937-1.912 1.091 0 1.789.812 1.789 1.912h-3.726ZM157.932.118V5.77c0 1.27-.877 2.183-2.333 2.183-1.457 0-2.334-.914-2.334-2.183V.118h-1.056v5.737c0 1.776 1.337 3.08 3.39 3.08 2.052 0 3.389-1.304 3.389-3.08V.118h-1.056ZM161.284 8.85a.766.766 0 0 0 .766-.762.766.766 0 0 0-1.533 0c0 .419.345.762.767.762ZM168.76 2.284h1.022C169.735.977 168.521 0 166.835 0c-1.67 0-2.981.964-2.981 2.42 0 1.167.851 1.861 2.214 2.25l1.073.305c.92.254 1.738.575 1.738 1.438 0 .948-.92 1.574-2.129 1.574-1.04 0-1.959-.457-2.045-1.439h-1.09c.102 1.422 1.261 2.386 3.135 2.386 2.01 0 3.151-1.1 3.151-2.504 0-1.624-1.55-2.149-2.453-2.386l-.886-.237c-.647-.169-1.686-.507-1.686-1.438 0-.83.766-1.438 1.925-1.438 1.056 0 1.856.499 1.959 1.353ZM172.233 8.85a.766.766 0 0 0 .767-.762.766.766 0 0 0-1.533 0c0 .419.345.762.766.762Z"/></svg>